<svg fill="none" height="100%" width="100%" viewBox="0 0 300 150" xmlns:xlink="http://www.w3.org/1999/xlink" xmlns="http://www.w3.org/2000/svg"><g visibility="visible" id="i0"><animate repeatCount="indefinite" begin="0s" calcMode="discrete" dur="3.16s" values="visible; hidden; hidden" keyTimes="0; 0.506; 1" attributeName="visibility" /><g transform="translate(150,75)"><g transform="rotate(-90)"><animateTransform repeatCount="indefinite" type="rotate" attributeName="transform" dur="3.16s" begin="0s" calcMode="spline" values="-90; 270; 270" keyTimes="0; 0.506329; 1" keySplines="0.333 0 0.667 1; 0 0 1 1" fill="freeze" /><g transform="scale(1,1) translate(-53,-53)"><g stroke-dasharray="0 100" pathLength="100" id="i1" transform="matrix(1,0,0,1,53,53)"><path stroke-miterlimit="10" stroke-linecap="round" stroke-width="10" stroke="#ff8e3a" d="M28,0C28,15.464,15.464,28,0,28C-15.464,28,-28,15.464,-28,0C-28,-15.464,-15.464,-28,0,-28C15.464,-28,28,-15.464,28,0Z" /><animate repeatCount="indefinite" fill="freeze" begin="0s" dur="3.16s" calcMode="spline" keySplines="0.333 0 0.667 1; 0.333 0 0.667 1; 0.333 0 0.667 1; 0 0 1 1" keyTimes="0; 0.151899; 0.316456; 0.506329; 1" values="0 100; 47.003 52.997; 55.345 44.655; 0 100; 0 100" attributeName="stroke-dasharray" /><animate repeatCount="indefinite" fill="freeze" begin="0s" dur="3.16s" calcMode="spline" keySplines="0.333 0 0.667 1; 0.333 0 0.667 1; 0.333 0 0.667 1; 0 0 1 1" keyTimes="0; 0.151899; 0.316456; 0.506329; 1" values="0; 0; -44.655; 0; 0" attributeName="stroke-dashoffset" /></g></g></g></g></g><g visibility="hidden" id="i2"><animate repeatCount="indefinite" begin="0s" calcMode="discrete" dur="3.16s" values="hidden; visible; visible" keyTimes="0; 0.494; 1" attributeName="visibility" /><g transform="translate(150,75)"><g transform="rotate(-90)"><animateTransform repeatCount="indefinite" type="rotate" attributeName="transform" dur="3.16s" begin="0s" calcMode="spline" values="-90; -90; 270" keyTimes="0; 0.493671; 1" keySplines="0 0 1 1; 0.333 0 0.667 1" fill="freeze" /><g transform="scale(1,1) translate(-53,-53)"><g stroke-dasharray="0 100" pathLength="100" id="i1" transform="matrix(1,0,0,1,53,53)"><path stroke-miterlimit="10" stroke-linecap="round" stroke-width="10" stroke="#ff8e3a" d="M28,0C28,15.464,15.464,28,0,28C-15.464,28,-28,15.464,-28,0C-28,-15.464,-15.464,-28,0,-28C15.464,-28,28,-15.464,28,0Z" /><animate repeatCount="indefinite" fill="freeze" begin="0s" dur="3.16s" calcMode="spline" keySplines="0 0 1 1; 0.333 0 0.667 1; 0.333 0 0.667 1; 0.333 0 0.667 1" keyTimes="0; 0.493671; 0.64557; 0.810127; 1" values="0 100; 0 100; 47.003 52.997; 55.345 44.655; 0 100" attributeName="stroke-dasharray" /><animate repeatCount="indefinite" fill="freeze" begin="0s" dur="3.16s" calcMode="spline" keySplines="0 0 1 1; 0.333 0 0.667 1; 0.333 0 0.667 1; 0.333 0 0.667 1" keyTimes="0; 0.493671; 0.64557; 0.810127; 1" values="0; 0; 0; -44.655; 0" attributeName="stroke-dashoffset" /></g></g></g></g></g></svg>