<svg fill="none" height="100%" width="100%" viewBox="0 0 500 500" xmlns:xlink="http://www.w3.org/1999/xlink" xmlns="http://www.w3.org/2000/svg"><g id="i0"><g transform="translate(157.961,250.961)"><animateTransform repeatCount="indefinite" type="translate" attributeName="transform" dur="1.034s" begin="0s" calcMode="spline" values="157.961 250.961; 157.961 193.961; 157.961 250.961; 157.961 250.961" keyTimes="0; 0.225806; 0.967742; 1" keySplines="0.333 0 0.667 1; 0.333 0 0.667 1; 0 0 1 1" fill="freeze" /><g transform="scale(1,1) translate(98.039,-8.961)"><g id="i1" transform="matrix(1,0,0,1,-98.039,8.961)"><ellipse ry="19.961" rx="19.961" cy="0" cx="0" fill="#fef5bd" /></g></g></g></g><g id="i2"><g transform="translate(215.294,250.961)"><animateTransform repeatCount="indefinite" type="translate" attributeName="transform" dur="1.034s" begin="0s" calcMode="spline" values="215.294 250.961; 215.294 193.961; 215.294 250.961; 215.294 250.961" keyTimes="0; 0.387097; 0.967742; 1" keySplines="0.333 0 0.667 1; 0.333 0 0.667 1; 0 0 1 1" fill="freeze" /><g transform="scale(1,1) translate(98.039,-8.961)"><g id="i1" transform="matrix(1,0,0,1,-98.039,8.961)"><ellipse ry="19.961" rx="19.961" cy="0" cx="0" fill="#ff8e3a" /></g></g></g></g><g id="i3"><g transform="translate(272.628,250.961)"><animateTransform repeatCount="indefinite" type="translate" attributeName="transform" dur="1.034s" begin="0s" calcMode="spline" values="272.628 250.961; 272.628 193.961; 272.628 250.961; 272.628 250.961" keyTimes="0; 0.580645; 0.967742; 1" keySplines="0.333 0 0.667 1; 0.333 0 0.667 1; 0 0 1 1" fill="freeze" /><g transform="scale(1,1) translate(98.039,-8.961)"><g id="i1" transform="matrix(1,0,0,1,-98.039,8.961)"><ellipse ry="19.961" rx="19.961" cy="0" cx="0" fill="#916646" /></g></g></g></g><g id="i4"><g transform="translate(329.961,250.961)"><animateTransform repeatCount="indefinite" type="translate" attributeName="transform" dur="1.034s" begin="0s" calcMode="spline" values="329.961 250.961; 329.961 193.961; 329.961 250.961; 329.961 250.961" keyTimes="0; 0.774194; 0.967742; 1" keySplines="0.333 0 0.667 1; 0.333 0 0.667 1; 0 0 1 1" fill="freeze" /><g transform="scale(1,1) translate(98.039,-8.961)"><g id="i1" transform="matrix(1,0,0,1,-98.039,8.961)"><ellipse ry="19.961" rx="19.961" cy="0" cx="0" fill="#71533d" /></g></g></g></g></svg>